# xmcd
#
# Track frame offsets:
#	150
#	12896
#	23479
#	45648
#	58742
#	70255
#	80615
#	99621
#	120265
#	134549
#	149678
#	159913
#	173486
#	186768
#	198711
#	211910
#	222532
#	234849
#
# Disc length: 3331 seconds
#
# Revision: 0
# Processed by: cddbd v1.5.2PL0 Copyright (c) Steve Scherf et al.
# Submitted via: audiograbber 1.83.01
#
DISCID=fa0d0112
DTITLE=Tony Bennett - 3 Original Hit Albums - Cloud 7
DYEAR=1900
DGENRE=
TTITLE0=I FALL IN LOVE TOO EASILY
TTITLE1=MY BABY JUST CARES FOR ME
TTITLE2=MY HEART TELLS ME
TTITLE3=OLD DEVIL MOON
TTITLE4=LOVE LETTERS
TTITLE5=MY REVERIE
TTITLE6=GIVE ME THE SIMPLE LIFE
TTITLE7=WHILE THE MUSIC PLAYS ON
TTITLE8=I CAN'T BELIEVE THAT YOU'RE IN LOVE WITH ME
TTITLE9=DARN THAT DREAM
TTITLE10=SING YOU SINNERS
TTITLE11=BLUE VELVET
TTITLE12=BECAUSE OF YOU
TTITLE13=COLD, COLD HEART
TTITLE14=SINCE MY LOVE HAS GONE
TTITLE15=WHILE WE'RE YOUNG
TTITLE16=I WON'T CRY ANYMORE
TTITLE17=SOLITAIRE
EXTD=
EXTT0=
EXTT1=
EXTT2=
EXTT3=
EXTT4=
EXTT5=
EXTT6=
EXTT7=
EXTT8=
EXTT9=
EXTT10=
EXTT11=
EXTT12=
EXTT13=
EXTT14=
EXTT15=
EXTT16=
EXTT17=
PLAYORDER=
